<?xml version="1.0" standalone="no"?>
<!DOCTYPE svg PUBLIC "-//W3C//DTD SVG 20010904//EN"
 "http://www.w3.org/TR/2001/REC-SVG-20010904/DTD/svg10.dtd">
<svg version="1.0" xmlns="http://www.w3.org/2000/svg"
 width="260.000000pt" height="260.000000pt" viewBox="0 0 260.000000 260.000000"
 preserveAspectRatio="xMidYMid meet">
<metadata>
Created by potrace 1.11, written by Peter Selinger 2001-2013
</metadata>
<g transform="translate(0.000000,260.000000) scale(0.100000,-0.100000)"
fill="#000000" stroke="none">
<path d="M515 1650 c-70 -18 -126 -58 -157 -112 -12 -22 -13 -20 -18 31 l-5
54 -125 -1 c-69 0 -140 -1 -157 -1 l-33 -1 0 -490 0 -490 160 0 160 0 0 208
c1 389 3 444 25 479 27 46 72 67 129 61 26 -3 56 -14 68 -24 45 -41 48 -64 48
-404 l0 -320 160 0 c159 0 160 0 161 23 3 78 -1 697 -6 717 -2 14 -7 39 -11
55 -3 17 -19 53 -36 81 -62 105 -233 168 -363 134z"/>
<path d="M1408 1644 c-265 -61 -417 -334 -360 -643 34 -187 153 -327 320 -377
81 -24 220 -22 294 4 58 21 133 67 157 96 21 25 28 11 24 -41 -9 -105 -49
-178 -121 -220 -60 -35 -175 -43 -253 -18 -58 18 -119 53 -159 91 l-25 23 -93
-93 c-50 -52 -92 -98 -92 -103 0 -18 81 -79 165 -124 101 -54 194 -74 340 -73
113 1 140 5 208 28 95 32 168 77 224 138 60 66 82 114 109 233 3 17 8 260 9
542 l3 512 -134 3 c-158 4 -179 0 -180 -30 -4 -72 -1 -69 -41 -31 -53 50 -84
67 -150 84 -67 18 -164 17 -245 -1z m309 -295 c80 -39 122 -129 118 -256 -2
-82 -29 -136 -81 -163 -16 -8 -32 -19 -35 -24 -13 -18 -147 -20 -192 -2 -125
48 -184 210 -123 341 54 118 190 163 313 104z"/>
<path d="M2354 956 c-53 -17 -89 -49 -108 -98 -50 -124 31 -249 161 -248 44 0
110 28 136 58 45 50 54 141 20 205 -23 45 -49 65 -106 82 -58 17 -51 17 -103
1z"/>
</g>
</svg>
