<svg version="1" xmlns="http://www.w3.org/2000/svg" width="346.667" height="346.667" viewBox="0 0 260.000000 260.000000"><path d="M131.5 8.5c-6 2.4-12.6 4.4-14.6 4.4-7.1.2-22.5 7.5-39.6 19C64 40.7 56.1 48.2 51.1 56.4c-3.3 5.5-3.4 5.9-4.7 23.9-1.1 15.2-1.8 19.9-4.4 28.2-3.5 11.2-4.8 20.1-5.6 39-.5 11.8-.3 13.8 2 21.9 4.4 15.7 8.5 17.3 18.6 7.1 3.6-3.5 7.4-6.4 8.5-6.5 1.1 0 3.1 1.4 4.6 3.1 2.9 3.5 7.5 4.8 17.9 4.9 17 .1 26.3 11.7 24.6 30.5l-.7 7.3 5.3 2.6c4.4 2.2 5.9 2.4 8.6 1.7 3.9-1.2 7.9.2 8.8 3.1 1.1 3.6 4.9 5 14.3 5.2 9.8.2 11.4.9 13.6 6.3 1.8 4.2 3.3 4.2 7.9-.3 3.2-3.1 4.2-3.5 6.9-3 1.7.3 3.8 1.2 4.6 2 2.9 2.4 9.1 1.7 13.2-1.6 3.5-2.8 3.9-2.9 7.3-1.7 3.1 1.1 4.3 1.1 7.9-.2l4.2-1.6.1-8.4c0-8.9 1.1-12.4 4.8-15.1 2.1-1.5 3.2-1.5 14.5-.1 6.7.9 12.3 1.4 12.4 1.2.2-.2 2.4-3.7 5.1-7.8 4.7-7.2 4.8-7.5 5.6-18 .7-10.4.7-10.8-2.6-20.1-5-13.9-4.8-20.5 1.1-38 3.2-9.5 4.5-15 4.5-19 0-5.5 0-5.6-5.3-9.6l-5.2-4.1-3.4-16.2c-1.9-8.9-3.6-16-3.8-15.8-.4.4 1 12 2.8 22.6 1.1 6.9.8 8.1-1.6 6.1-.9-.7-1.8-1-2.2-.6-.8.7-1.2.3 6.5 5.5 3.4 2.3 6.9 5.3 7.8 6.7 2.6 3.9 1.3 15.6-3 28.4-2 5.7-4.1 13.2-4.7 16.7-1 5.7-.9 6.6 1.5 12 3.7 8.5 4.8 13.8 4.9 22.8 0 8.9-1.5 15-4.2 16.5-2.1 1.1-6.2.9-5.5-.2.3-.5 1.1-.6 1.7-.2.7.3.3-.2-.7-1-1.3-1.1-1.5-1.6-.6-1.6.7 0 1-.3.6-.7-.4-.5-1.3-.1-1.9.7-.7.8-1.9 1.7-2.7 1.8-.8.2-1.2.1-.8-.3.4-.4.1-1.4-.7-2.1-1.8-1.8-2.6-1.8-1.9.1.4.8.2 1.5-.4 1.5-.6 0-1.3-.6-1.5-1.3-.4-.8-.6-.8-.6.2-.1 1.1-.5 1-1.6-.5-1.4-1.8-1.4-1.8-1.5 0 0 1.4-.3 1.6-1.4.7-1-.8-1.9-.7-3.7.8-2.3 1.8-3 2.1-4.7 2.1-.4 0-.8 1-.9 2.1-.2 2.9-1.1 3.5-2.6 1.9-.9-1-.9-1.1 0-.6.9.5 1.1.2.7-.8-.3-.8-1.2-1.2-2-.9-.8.3-1.1.9-.8 1.4.3.5-.3 1.2-1.3 1.5-5.4 1.9-9.2 4.1-9.6 5.7-.3.9-.1 1.7.4 1.7s.9.9.9 2 .4 2 .9 2c1.3 0 2 8.2.8 10.4-.7 1.4-1.1 1.5-1.7.6-.4-.7-1.3-.9-1.9-.6-.6.4-.9 1.2-.6 1.7.4.5.1.9-.4.9-.6 0-1.1.9-1.1 2 0 2.9-2.1 1.6-5.3-3.3-1.6-2.3-2.6-3.4-2.4-2.5 2 6.2 1.9 8.5-.7 10.2-1.6 1-2.6 1.2-2.6.5 0-.8-.4-.8-1.5.1-.8.7-1.5.9-1.5.4s-.4-.3-.9.5c-.7 1.1-1.5 1-4.4-.8-3.8-2.3-11.5-2.9-13.5-.9-1.2 1.2-1.4 1-1.6-3.2-.2-3.1-2.1-3.7-2.2-.7-.2 4.8-.3 4.9-3.6 2.4-3.8-2.8-9.8-4-13.3-2.7-1.5.6-2.7.6-3 0-.4-.6-1.8-1-3.3-1-1.6 0-3.2-.8-3.9-2-1.1-1.7-1-1.8.5-1.3.9.3 1.4.3 1-.2-.4-.4-.1-1.3.6-1.9 1.1-.8 1.2-1.7.4-3.6-1-2.3-1.1-2.3-1.5-.5-.8 3.2-2 4-3.9 2.4-.9-.8-1.9-1.3-2.1-1.2-1 .8-2.3.1-2.3-1.2 0-.8-.7-1.5-1.5-1.5-1.8 0-1.9-.7-.3-2.4 1.1-1.1 1.5-1.1 2.4.3 1 1.3 1.1 1 .6-1.4-.5-2.8-.4-2.9 1.3-1.5 1.7 1.4 1.7 1.4.7-.7-1.7-3.2-1.5-3.6 1.5-2.8l2.7.6-2.7-2.7c-2.8-2.8-3.4-4.4-1.7-4.4.6 0 1 .5 1 1.2 0 1.2 2.9-2.1 3-3.5 0-.4-.8-.7-1.7-.8-1.1 0-1.3-.3-.5-.6.6-.2 1.2-.9 1.2-1.5s-.7-.7-1.6-.4c-1.2.4-1.5.2-1-.9.3-.8.9-2.2 1.2-3.1.5-1.1.2-1.5-1.2-1.2-1.6.2-1.9-.3-1.7-2.9.1-2.3-.3-3.3-1.3-3.3-.8 0-1.4-.5-1.4-1.1 0-.5.5-.7 1-.4.6.3 1 .3 1 0 0-1.1-2.8-3.5-4-3.5-.6 0-1-.8-.8-1.8.2-1.2-.4-1.7-2.2-1.9-1.4 0-3-.1-3.7-.2-.7-.1-1-.8-.6-1.9.6-1.5.3-1.4-1.7.3-1.3 1.1-2.1 1.5-1.7.9.7-1.3-6.5-4.4-10.1-4.4-1.2 0-2.2-.5-2.2-1.1 0-.5-.5-.7-1.2-.3-.6.4-.8.3-.5-.3.4-.6.1-1.6-.7-2.2-1-.8-1.5-.8-1.8-.1-.4 1.3-4.8 2.2-4.8 1 0-.4.6-1 1.3-1.3.6-.3.2-.4-.9-.4-1.5.1-2 .6-1.7 1.7.4 1.3.3 1.3-.9-.1-1.9-2.3-6.6-3-7.1-1-.4 1.3-.5 1.3-.6-.2-.1-1.2-.6-1.6-1.3-1.1-.7.4-1 .4-.6-.1.4-.4.2-1.7-.4-2.8-.8-1.7-.8-1.9.5-1.4 1.1.4 1.4.2 1.1-.8-.6-1.4-3.8-2.8-6.6-2.8-1 0-1.8-.4-1.8-1s-.3-.8-.6-.4c-.8.8-2.7-1.2-3.9-3.8-1.2-2.9-1.4-4.5-.6-4.5.4 0 1.4-1.2 2.2-2.8.7-1.5 3.1-5.3 5.2-8.4 2.7-4.2 4.5-8.6 6.3-16 1.6-6.5 3.8-12.3 6-15.9 3.5-5.9 7.7-20.1 8.9-30.3.7-5.8.7-5.8 3.7-5.4 2.9.5 3 .4 1.2-.9-1-.7-2.5-1.2-3.4-1.1-.9.2-2.3-1.1-3.4-3.2-2.6-5.1-4.1-6.2-2-1.5 3.6 7.8.6 24.4-6.6 36.5-2.1 3.6-5 10.5-6.5 15.5-1.5 4.9-2.8 9.6-3.1 10.3-.2.7-.8 1-1.4.7-.6-.4-1 .6-1 2.2 0 1.9-1 3.7-2.8 5.3-1.6 1.4-3.3 3.4-3.9 4.4-1.5 2.8-3.6 1-2.8-2.4.5-2.3.2-3-1.4-3.5-2.1-.6-3-4.5-1-4.5.5 0 .7-.5.4-1-.4-.6-1.1-.8-1.6-.5-1.3.9-1.1-1.9.2-3.2 1.2-1.2.3-3.6-1.1-2.8-.5.3-.7-.4-.5-1.5.2-1.3-.1-2-1.1-2-.8 0-1.4-.5-1.4-1.1 0-.5.5-.7 1-.4 1.3.8 5-.3 5-1.5 0-.5-.9-.7-1.9-.5-1.4.3-1.8-.1-1.4-1.1.3-.8 1-1.3 1.7-1.1.6.2 1.6-.2 2.3-.9 1.5-1.5 1.7-3.8.3-2.9-.9.5-1.5-2.4-1.1-4.8.1-.5-.3-.6-.8-.3s-.7 1.6-.3 2.8c.4 1.6-.5 1-3.3-2.1-3.1-3.4-3.6-4.4-2.4-5.2 2-1.3 3.1-1.1 2.3.3-.4.7-.3.9.1.5 1.4-1.3 1.4-3.6 0-3.1-1.5.6-2.4-.6-3-3.7-.3-1.7-.2-1.9 1-.9 1.1.9 1.2.7.8-.9-.3-1.2-.8-1.9-1.2-1.6-.4.2-1.2-1.4-1.8-3.6-.8-3.1-.8-3.9.3-3.9s1.1-.5.2-2.5c-.8-1.8-1.4-2.2-2.3-1.5-1.6 1.4-2.5-.7-1.8-4.3.3-1.6.1-2.7-.6-2.7-1.8 0-.5-5.6 2.2-9.1C60.8 51.3 67.6 45 69 45c.6 0 .8-.5.5-1-.4-.7.2-.9 1.9-.4 1.9.4 2.6.2 2.6-.9 0-2.4 3.8-2.8 4.6-.4.6 2 .7 2 1.9-.3 1.2-2.2 1.3-2.2 2.4-.4.9 1.4 1.1 1.4.7.2-.5-1.8 2.4-3 4.5-1.7.8.4 1.8.1 2.6-.9.8-1.1 1.2-1.2 1.3-.5 0 2.1 2.6 1.5 2.6-.6 0-1.1-.4-1.7-.9-1.4-.5.3-.1-.6.8-2.1 1.7-2.6 3.3-3.8 1.9-1.4-.5.8-.1.8 1-.1s1.6-2.4 1.3-3.8c-.5-2.9 2.6-4.1 4.9-1.9 1.9 2 2.4 2 2.4 0 0-.8-.4-1.3-.8-1-.5.3-.9-.8-1-2.4-.1-2.9.2-3.2 3.1-3.4.6-.1 1.8-.7 2.6-1.4.7-.7 1.9-1.1 2.7-.8.7.3 1.4.1 1.6-.3.2-.4 5.8-2.7 12.6-5.1 11.4-4 13-4.3 23-4.4 9 0 12.1.4 19.5 2.7 14.8 4.6 34.4 14.9 43.4 22.8 1.8 1.6 5.7 4.4 8.5 6.4 12.5 8.4 18.4 12.7 19.6 14.3 1.3 1.6 1.4 1.6 1-.3-.2-1.2-8-8.2-19-17-17.4-13.9-19.7-15.5-33-21.7-12.6-5.8-15.9-6.9-28.2-9.2-7.7-1.4-15.1-2.6-16.5-2.5-1.4.1-7.5 2-13.6 4.4zM96.1 29.3c-1 .9-1.1.8-.5-.6.3-1 .9-1.5 1.2-1.2.3.3 0 1.1-.7 1.8zM62.5 116c.3.5.1 1-.4 1-.6 0-1.1-.5-1.1-1 0-.6.2-1 .4-1 .3 0 .8.4 1.1 1zm-4.4 6.9c-.7.5-1.1 1.3-.7 1.9.3.6 0 1.7-.8 2.5s-1.2 1.7-.9 2.1c.4.3.1.6-.5.6s-1.4-.5-1.7-1c-.3-.6-.2-1 .4-1 .6 0 .8-.6.5-1.4-.6-1.6 3.4-6.2 4.4-5.1.4.3 0 1-.7 1.4zm74.9 67.2c0-.6.4-1.1.9-1.1.6 0 .6 1.2-.1 3.1-1.1 3.3-2.1 2.9-3.3-1.1-.7-2.2-.6-2.3.9-1.1 1 .9 1.6 1 1.6.2z"/><path d="M106.7 25.3c.3.4 1.2.6 2.2.3 1.1-.4 1-.2-.4 1-2 1.5-1.9 1.6.5 1.2 3.4-.4 3.3-3.3-.2-3.3-1.5-.1-2.4.3-2.1.8zM104.5 31c-.6.9 1.1 5 2.1 5 .2 0 .1-.8-.4-1.8-.5-.9-.7-2.3-.5-3 .5-1.4-.3-1.6-1.2-.2zM99.3 34.5c0 .8.4 1.2.9.9.5-.3.6-1 .3-1.5-.9-1.3-1.2-1.1-1.2.6zM72.5 46.1c-.4.6-.5 1.2-.2 1.5.2.3.7-.2 1-1.1.7-1.7.1-2-.8-.4zM68.6 46.7c.5.5 1.2 1.2 1.6 1.8.4.6.8.2.8-.8 0-.9-.7-1.7-1.7-1.7-.9 0-1.2.3-.7.7zM57.4 59.8c.3.5.1 1.2-.6 1.4-.8.3-.9.6-.1 1.1.6.4 1.3 0 1.7-.8.3-.8 0-1.7-.6-2.1-.6-.4-.8-.3-.4.4zM60.5 72c-.3.5-.1 1 .4 1 .6 0 1.1-.5 1.1-1 0-.6-.2-1-.4-1-.3 0-.8.4-1.1 1zM127.4 75.9c-10.6 5.5-17.5 11.7-22.7 20.4-4.1 6.9-4.2 7.4-4.2 15.7 0 6.8.5 9.3 2.2 12.6 4.9 9.2 14 14 25 13.1 6-.4 8.5-1.4 22.1-8.5 16.2-8.5 18.6-10.1 20.8-14.4 2-3.9 1.7-4.7-.9-1.8-4.8 5.6-5.4 5-2-2.1 2.8-5.8 3.4-8.4 3.6-14.4l.2-7.4-4.3-4.4c-3-3.1-4-4.6-3-5 1.4-.5-6-4.2-7.9-3.9-.6.2-1.4-.2-1.8-.7-.3-.6-1.2-.8-2-.4-.8.3-1.5.1-1.5-.4s-.6-1-1.2-1.1c-.7 0-4.2-.4-7.8-.7-6.3-.7-6.8-.6-14.6 3.4zM63 75.1c0 .5.5.7 1 .4.6-.3 1-.8 1-1.1 0-.2-.4-.4-1-.4-.5 0-1 .5-1 1.1zM60 78.3c0 .8.9 2.2 2 3.2 1.7 1.5 2 1.6 1.5.3-.4-.9-.1-1.9.4-2.3.6-.3.8-1.1.5-1.7-.4-.6-1-.5-1.5.3-.6 1-.9 1.1-.9.1 0-.6-.4-1.2-1-1.2-.5 0-1 .6-1 1.3zM207.8 83.9c-1.2 1.7-4.3 6.2-6.7 10.1-3 4.7-4.7 6.6-5.2 5.8-.4-.7-1.1-1-1.4-.6-.5.5 2.2 7.5 4.2 10.8.2.3-1 1.1-2.6 1.8-2.4 1.1-8.2 7.1-16.2 17-1 1.1-2 3.3-2.3 4.8-1 4-2.2 5.3-9.7 10.2-7.9 5.1-11.2 8.5-13.3 13.6-2.1 5.1-2 7.9.4 12.6 2.7 5.3 6 7.4 10.4 6.6 4-.8 6.4-3.2 7.2-7.4.4-1.8 1-3.5 1.5-3.8.5-.3.6-2.6.3-5.2-.4-3.2-.3-4.3.4-3.3.6.8.8 2.1.5 2.9-.3.8 0 1.8.7 2.2 1.2.7 1.7 3.5 2.3 13 .1 1.4 1.5 1.6 5.9 1.1 1-.1 6.1-8.9 8.8-15.1 2.1-4.9 2.4-7.1 2.6-20.5.2-12.1.6-16.2 2.2-21 2.5-7.3 2.8-4.5.8 8.5-1.3 8.5-1.2 11 .5 11 .5 0 2.5 1.8 4.4 3.9 4.6 5 10.3 7.8 18.7 9.3 5.2.8 7.7.8 11.3-.2 5.5-1.5 9.5-4.5 9.5-6.9 0-1 .8-2.9 1.8-4.2 5.4-7.1 6.6-22.1 2.7-33.9-3.4-10.1-8.7-15.3-21.9-21.6-11.2-5.3-14.5-5.6-17.8-1.5zM74 145c0 .6.7 1 1.5 1s1.5-.2 1.5-.4-.7-.6-1.5-1c-.8-.3-1.5-.1-1.5.4zM79 145.9c0 .6.4 1.3 1 1.6.6.3.7-.1.4-.9-.7-1.8-1.4-2.1-1.4-.7zM80 150.3c0 .7.9 1.3 2 1.4 1.1.1 2 0 2-.2s-.9-.9-2-1.5c-1.5-.8-2-.8-2 .3zM136 184.8c0 .5.7 1.3 1.6 1.6 1 .4 1.4.1 1.2-.6-.5-1.5-2.8-2.3-2.8-1zM172 216.9c0 .5.4 1.2.9 1.6.6.3.4 2.1-.4 4.5-1.2 3.3-1.2 4-.1 4 .8 0 1.7-1.2 2-2.8.4-1.5.9-3.5 1.2-4.4.3-1-.3-2.1-1.6-2.8-1.2-.6-2-.7-2-.1z"/></svg>